<svg width="102" height="102" viewBox="0 0 102 102" fill="none" xmlns="http://www.w3.org/2000/svg">
<path d="M11.1562 60.5625H12.75C12.75 60.9852 12.9179 61.3906 13.2168 61.6895C13.5157 61.9883 13.9211 62.1562 14.3438 62.1562H17.5312V73.3125C17.5312 74.5806 18.035 75.7967 18.9316 76.6934C19.8283 77.59 21.0444 78.0938 22.3125 78.0938C23.5806 78.0938 24.7967 77.59 25.6934 76.6934C26.59 75.7967 27.0938 74.5806 27.0938 73.3125V62.1562H30.2812C30.6009 62.1547 30.9127 62.0571 31.1762 61.876C31.4397 61.695 31.6426 61.4389 31.7587 61.141L35.0083 62.2248C37.715 63.1252 40.258 64.4578 42.5388 66.1709L44.625 67.7344V68.5312C44.625 69.7993 45.1287 71.0154 46.0254 71.9121C46.9221 72.8088 48.1382 73.3125 49.4062 73.3125C50.6743 73.3125 51.8904 72.8088 52.7871 71.9121C53.6838 71.0154 54.1875 69.7993 54.1875 68.5312V33.4688C54.1875 32.2007 53.6838 30.9846 52.7871 30.0879C51.8904 29.1912 50.6743 28.6875 49.4062 28.6875C48.1382 28.6875 46.9221 29.1912 46.0254 30.0879C45.1287 30.9846 44.625 32.2007 44.625 33.4688V34.3676C41.0683 37.7717 36.6285 40.1106 31.8097 41.1187C31.7415 40.7623 31.552 40.4405 31.2733 40.2081C30.9947 39.9756 30.6441 39.8469 30.2812 39.8438H14.3438C13.9211 39.8438 13.5157 40.0117 13.2168 40.3105C12.9179 40.6094 12.75 41.0148 12.75 41.4375H11.1562C9.04358 41.44 7.01817 42.2804 5.52429 43.7743C4.03041 45.2682 3.19003 47.2936 3.1875 49.4062V52.5938C3.19003 54.7064 4.03041 56.7318 5.52429 58.2257C7.01817 59.7196 9.04358 60.56 11.1562 60.5625ZM23.9062 73.3125C23.9062 73.7352 23.7383 74.1406 23.4395 74.4395C23.1406 74.7383 22.7352 74.9062 22.3125 74.9062C21.8898 74.9062 21.4844 74.7383 21.1855 74.4395C20.8867 74.1406 20.7188 73.7352 20.7188 73.3125V62.1562H23.9062V73.3125ZM47.8125 33.4688C47.8125 33.0461 47.9804 32.6407 48.2793 32.3418C48.5782 32.0429 48.9836 31.875 49.4062 31.875C49.8289 31.875 50.2343 32.0429 50.5332 32.3418C50.8321 32.6407 51 33.0461 51 33.4688V68.5312C51 68.9539 50.8321 69.3593 50.5332 69.6582C50.2343 69.9571 49.8289 70.125 49.4062 70.125C48.9836 70.125 48.5782 69.9571 48.2793 69.6582C47.9804 69.3593 47.8125 68.9539 47.8125 68.5312V33.4688ZM44.625 63.75L44.4529 63.6209C41.8982 61.7025 39.0501 60.2101 36.0187 59.2014L31.875 57.8197V44.3541C36.5279 43.4773 40.9012 41.4929 44.625 38.5688V63.75ZM15.9375 43.0312H28.6875V58.9688H15.9375V43.0312ZM6.375 49.4062C6.375 48.1382 6.87874 46.9221 7.7754 46.0254C8.67205 45.1287 9.88818 44.625 11.1562 44.625H12.75V57.375H11.1562C9.88818 57.375 8.67205 56.8713 7.7754 55.9746C6.87874 55.0779 6.375 53.8618 6.375 52.5938V49.4062ZM86.0625 3.1875C83.5408 3.1875 81.0757 3.93527 78.979 5.33626C76.8823 6.73725 75.2481 8.72853 74.283 11.0583C73.318 13.388 73.0655 15.9516 73.5575 18.4249C74.0494 20.8982 75.2638 23.17 77.0469 24.9531C78.83 26.7362 81.1018 27.9506 83.5751 28.4425C86.0484 28.9345 88.612 28.682 90.9417 27.717C93.2715 26.7519 95.2627 25.1177 96.6637 23.021C98.0647 20.9243 98.8125 18.4592 98.8125 15.9375C98.8087 12.5572 97.4642 9.31635 95.0739 6.92608C92.6837 4.53582 89.4428 3.1913 86.0625 3.1875ZM86.0625 25.5C84.1712 25.5 82.3224 24.9392 80.7499 23.8884C79.1773 22.8377 77.9517 21.3442 77.2279 19.5969C76.5041 17.8496 76.3148 15.9269 76.6837 14.0719C77.0527 12.217 77.9634 10.5131 79.3008 9.17579C80.6381 7.83845 82.342 6.92771 84.1969 6.55874C86.0519 6.18977 87.9746 6.37914 89.7219 7.1029C91.4692 7.82666 92.9627 9.05231 94.0134 10.6249C95.0642 12.1974 95.625 14.0462 95.625 15.9375C95.6225 18.4729 94.6142 20.9036 92.8214 22.6964C91.0286 24.4892 88.5979 25.4975 86.0625 25.5ZM84.4688 36.6562C81.6318 36.6562 78.8586 37.4975 76.4998 39.0736C74.141 40.6497 72.3025 42.8899 71.2169 45.5109C70.1312 48.1319 69.8472 51.0159 70.4006 53.7983C70.9541 56.5807 72.3202 59.1366 74.3262 61.1426C76.3322 63.1486 78.888 64.5147 81.6704 65.0681C84.4528 65.6216 87.3369 65.3375 89.9579 64.2519C92.5788 63.1663 94.819 61.3278 96.3951 58.969C97.9713 56.6101 98.8125 53.8369 98.8125 51C98.8079 47.1972 97.2952 43.5515 94.6062 40.8626C91.9172 38.1736 88.2715 36.6609 84.4688 36.6562ZM84.4688 62.1562C82.2623 62.1562 80.1053 61.5019 78.2707 60.2761C76.436 59.0502 75.0061 57.3078 74.1617 55.2693C73.3173 53.2308 73.0964 50.9876 73.5269 48.8235C73.9573 46.6594 75.0199 44.6716 76.5801 43.1113C78.1403 41.5511 80.1282 40.4886 82.2923 40.0581C84.4564 39.6276 86.6995 39.8486 88.7381 40.693C90.7766 41.5374 92.519 42.9673 93.7448 44.8019C94.9707 46.6366 95.625 48.7935 95.625 51C95.6216 53.9578 94.4452 56.7935 92.3537 58.8849C90.2622 60.9764 87.4265 62.1529 84.4688 62.1562Z" fill="#1778F2"/>
<path d="M88.4531 9.5625C87.3964 9.5625 86.383 9.98228 85.6357 10.7295C84.8885 11.4767 84.4688 12.4902 84.4688 13.5469V15.9375H81.2812V19.125H84.4688V22.3125H87.6562V19.125H90.8438V15.9375H87.6562V13.5469C87.6562 13.3355 87.7402 13.1328 87.8896 12.9834C88.0391 12.834 88.2418 12.75 88.4531 12.75C88.6645 12.75 88.8672 12.834 89.0166 12.9834C89.166 13.1328 89.25 13.3355 89.25 13.5469V14.3438H92.4375V13.5469C92.4375 12.4902 92.0177 11.4767 91.2705 10.7295C90.5233 9.98228 89.5098 9.5625 88.4531 9.5625ZM94.0312 76.5H79.6875C78.4194 76.5 77.2033 77.0037 76.3066 77.9004C75.41 78.7971 74.9062 80.0132 74.9062 81.2812V94.0312C74.9062 95.2993 75.41 96.5154 76.3066 97.4121C77.2033 98.3088 78.4194 98.8125 79.6875 98.8125H94.0312C95.2993 98.8125 96.5154 98.3088 97.4121 97.4121C98.3088 96.5154 98.8125 95.2993 98.8125 94.0312V81.2812C98.8125 80.0132 98.3088 78.7971 97.4121 77.9004C96.5154 77.0037 95.2993 76.5 94.0312 76.5ZM94.0312 79.6875C94.4539 79.6875 94.8593 79.8554 95.1582 80.1543C95.4571 80.4532 95.625 80.8586 95.625 81.2812V86.0625H93.0081C92.6602 84.6957 91.8668 83.4838 90.7534 82.6182C89.6399 81.7526 88.2697 81.2827 86.8594 81.2827C85.449 81.2827 84.0789 81.7526 82.9654 82.6182C81.8519 83.4838 81.0586 84.6957 80.7107 86.0625H78.0938V81.2812C78.0938 80.8586 78.2617 80.4532 78.5605 80.1543C78.8594 79.8554 79.2648 79.6875 79.6875 79.6875H94.0312ZM90.0469 87.6562C90.0469 88.2867 89.8599 88.9029 89.5097 89.4271C89.1594 89.9513 88.6616 90.3599 88.0792 90.6011C87.4967 90.8424 86.8558 90.9055 86.2375 90.7825C85.6192 90.6595 85.0512 90.3559 84.6055 89.9102C84.1597 89.4644 83.8561 88.8964 83.7331 88.2781C83.6101 87.6598 83.6733 87.0189 83.9145 86.4364C84.1558 85.854 84.5643 85.3562 85.0885 85.0059C85.6127 84.6557 86.2289 84.4688 86.8594 84.4688C87.7048 84.4688 88.5155 84.8046 89.1133 85.4023C89.7111 86.0001 90.0469 86.8109 90.0469 87.6562ZM94.0312 95.625H79.6875C79.2648 95.625 78.8594 95.4571 78.5605 95.1582C78.2617 94.8593 78.0938 94.4539 78.0938 94.0312V89.25H80.7107C81.0586 90.6168 81.8519 91.8287 82.9654 92.6943C84.0789 93.5599 85.449 94.0298 86.8594 94.0298C88.2697 94.0298 89.6399 93.5599 90.7534 92.6943C91.8668 91.8287 92.6602 90.6168 93.0081 89.25H95.625V94.0312C95.625 94.4539 95.4571 94.8593 95.1582 95.1582C94.8593 95.4571 94.4539 95.625 94.0312 95.625ZM86.8594 44.625C85.8027 44.625 84.7892 45.0448 84.042 45.792C83.2948 46.5392 82.875 47.5527 82.875 48.6094V50.0151L78.8062 47.9798C78.5334 47.8435 78.2273 47.7883 77.9241 47.8207C77.6209 47.8531 77.3334 47.9719 77.0956 48.1628C76.8579 48.3537 76.6799 48.6089 76.5828 48.8979C76.4857 49.187 76.4736 49.4978 76.5478 49.7935L77.2762 52.7069C77.6035 54.0292 78.2607 55.2469 79.1863 56.2464C80.1119 57.2458 81.2757 57.9944 82.569 58.4221C83.803 58.8311 85.1361 58.8311 86.3701 58.4221L86.7287 58.3026C87.9278 57.9047 88.971 57.1388 89.7098 56.1139C90.4486 55.089 90.8454 53.8572 90.8438 52.5938V51H92.4375V47.8125H90.7625C90.5788 46.9128 90.09 46.1042 89.3788 45.5233C88.6676 44.9425 87.7776 44.6252 86.8594 44.625ZM87.6562 52.5938C87.6567 53.1877 87.47 53.7667 87.1227 54.2485C86.7754 54.7303 86.2851 55.0904 85.7214 55.2776L85.3613 55.3972C84.7816 55.5884 84.1559 55.5884 83.5762 55.3972C82.8697 55.1639 82.2259 54.772 81.6941 54.2516C81.1624 53.7311 80.7567 53.0959 80.5083 52.3945L81.4486 52.8727C81.9351 53.1161 82.4758 53.231 83.0193 53.2064C83.5627 53.1817 84.0908 53.0184 84.5533 52.732C85.0158 52.4455 85.3973 52.0455 85.6615 51.5699C85.9257 51.0943 86.0637 50.5591 86.0625 50.0151V48.6094C86.0625 48.398 86.1465 48.1953 86.2959 48.0459C86.4453 47.8965 86.648 47.8125 86.8594 47.8125C87.0707 47.8125 87.2734 47.8965 87.4229 48.0459C87.5723 48.1953 87.6562 48.398 87.6562 48.6094V52.5938Z" fill="#1778F2"/>
<path d="M60.5625 49.4062H57.375V52.5938H60.5625V49.4062Z" fill="#1778F2"/>
<path d="M66.9375 49.4062H63.75V52.5938H66.9375V49.4062Z" fill="#1778F2"/>
<path d="M59.8214 36.4761C58.8763 36.8331 57.8994 37.1503 56.916 37.4132L57.7416 40.4924C58.8285 40.2007 59.9075 39.8549 60.9514 39.4564L59.8214 36.4761ZM76.5175 27.3423L76.6403 27.167L74.0329 25.3406L73.9086 25.5175C73.3635 26.2936 72.7786 27.0539 72.1666 27.7726L74.5939 29.8445C75.2712 29.0381 75.9183 28.1998 76.5175 27.3423ZM67.7694 31.9913L69.7361 34.4999C70.623 33.8066 71.4741 33.0688 72.2861 32.2893L70.0772 29.9911C69.3421 30.6962 68.5718 31.3638 67.7694 31.9913ZM65.2752 33.7508C64.4147 34.2947 63.5274 34.7953 62.6169 35.2505L64.0401 38.1017C65.0409 37.6029 66.0291 37.0451 66.979 36.4458L65.2752 33.7508ZM70.074 72.0088L72.283 69.7106C71.4709 68.9311 70.6198 68.1933 69.733 67.5L67.7663 70.0086C68.5687 70.6361 69.3389 71.3037 70.074 72.0088ZM74.0329 76.6593L76.6403 74.8281L76.5191 74.6544C75.9183 73.7954 75.2712 72.957 74.5939 72.1618L72.1666 74.2336C72.7786 74.9524 73.3635 75.7126 73.9102 76.4904L74.0329 76.6593ZM59.8214 65.5238L60.9514 62.5435C59.9075 62.1482 58.8285 61.7992 57.7416 61.5075L56.916 64.5867C57.8994 64.8496 58.8763 65.1668 59.8214 65.5238ZM65.2752 68.2491L66.979 65.5541C66.0227 64.9548 65.0409 64.397 64.0401 63.8982L62.6169 66.7494C63.5274 67.2046 64.4147 67.7052 65.2752 68.2491Z" fill="#1778F2"/>
<path d="M23.5078 46.2188H20.3203V49.4062H23.5078V46.2188Z" fill="#1778F2"/>
<path d="M23.5078 52.5938H20.3203V55.7812H23.5078V52.5938Z" fill="#1778F2"/>
</svg>
