<svg width="102" height="102" viewBox="0 0 102 102" fill="none" xmlns="http://www.w3.org/2000/svg">
<g clip-path="url(#clip0_7_16137)">
<path d="M87.0745 23.3022H75.9253V17.8619C75.9231 16.26 75.374 14.7068 74.3689 13.4594C73.3638 12.212 71.963 11.3451 70.3981 11.0022V3.41797C70.3971 2.49366 70.0294 1.60751 69.3759 0.953927C68.7223 0.300342 67.8361 -0.0673048 66.9118 -0.0683594H63.9144C63.1429 -0.0669463 62.3936 0.190126 61.7837 0.662653C61.1738 1.13518 60.7377 1.79651 60.5436 2.54323L39.3885 10.8394H30.5571C29.3687 10.8407 28.2294 11.3134 27.3891 12.1537C26.5487 12.994 26.076 14.1334 26.0747 15.3218V23.3022H14.9255C12.9448 23.3044 11.0459 24.0922 9.64533 25.4928C8.24478 26.8933 7.45698 28.7922 7.45475 30.7729V78.8927C7.45698 80.8734 8.24478 82.7723 9.64533 84.1728C11.0459 85.5734 12.9448 86.3612 14.9255 86.3634H40.2536C40.5935 88.3755 40.2383 90.4434 39.2465 92.2267L36.4685 97.1889C36.1972 97.6739 36.0573 98.2213 36.0629 98.777C36.0685 99.3327 36.2193 99.8773 36.5004 100.357C36.7814 100.836 37.1829 101.234 37.6651 101.51C38.1473 101.786 38.6933 101.932 39.249 101.932H62.751C63.3067 101.932 63.8527 101.786 64.3349 101.51C64.8171 101.234 65.2186 100.836 65.4996 100.357C65.7807 99.8773 65.9315 99.3327 65.937 98.777C65.9426 98.2213 65.8027 97.6738 65.5313 97.1889L62.7535 92.2265C61.7617 90.4433 61.4065 88.3754 61.7464 86.3634H87.0745C89.0552 86.3612 90.9541 85.5734 92.3547 84.1728C93.7552 82.7723 94.543 80.8734 94.5452 78.8927V30.7729C94.543 28.7922 93.7552 26.8933 92.3547 25.4928C90.9541 24.0922 89.0552 23.3044 87.0745 23.3022ZM70.3981 14.1158C71.147 14.4154 71.7889 14.9323 72.2414 15.5999C72.6939 16.2676 72.9362 17.0554 72.937 17.8619V30.08C72.9362 30.8866 72.6939 31.6744 72.2414 32.342C71.7889 33.0097 71.147 33.5266 70.3981 33.8263V14.1158ZM63.4163 3.41797C63.4165 3.28592 63.469 3.15932 63.5624 3.06595C63.6557 2.97258 63.7823 2.92006 63.9144 2.91992H66.9118C67.0439 2.92006 67.1705 2.97258 67.2638 3.06595C67.3572 3.15932 67.4097 3.28592 67.4099 3.41797V44.0877C67.4097 44.2197 67.3572 44.3463 67.2638 44.4397C67.1705 44.5331 67.0439 44.5856 66.9118 44.5857H63.9144C63.7823 44.5856 63.6557 44.5331 63.5624 44.4397C63.469 44.3463 63.4165 44.2197 63.4163 44.0877V3.41797ZM41.162 13.3537L60.4281 5.79838V41.7072L41.162 34.1519V13.3537ZM29.063 15.3218C29.0634 14.9256 29.221 14.5458 29.5011 14.2657C29.7812 13.9856 30.161 13.8281 30.5571 13.8276H38.1737V33.6768H30.5571C30.161 33.6763 29.7812 33.5188 29.5011 33.2386C29.221 32.9585 29.0634 32.5787 29.063 32.1826L29.063 15.3218ZM39.5879 52.2947H35.4152L31.9851 36.665H35.9247L39.5879 52.2947ZM62.9237 98.6484C62.9406 98.6786 62.9494 98.7126 62.949 98.7472C62.9487 98.7817 62.9393 98.8156 62.9219 98.8454C62.9044 98.8752 62.8794 98.8999 62.8495 98.9171C62.8195 98.9343 62.7855 98.9434 62.751 98.9434H39.249C39.2145 98.9433 39.1805 98.9343 39.1505 98.9171C39.1206 98.8999 39.0956 98.8752 39.0781 98.8454C39.0607 98.8156 39.0513 98.7817 39.0509 98.7472C39.0505 98.7126 39.0592 98.6786 39.0761 98.6484L41.8538 93.6864C43.0935 91.4584 43.5905 88.8932 43.2725 86.3634H58.7275C58.4095 88.8931 58.9065 91.4583 60.1462 93.6862L62.9237 98.6484ZM91.557 78.8927C91.5556 80.0811 91.0829 81.2204 90.2426 82.0607C89.4023 82.9011 88.2629 83.3738 87.0745 83.3751H60.5568C60.5503 83.3751 60.5438 83.375 60.5374 83.3751H41.4606C41.4554 83.375 41.4501 83.3751 41.4448 83.3751H14.9255C13.7371 83.3738 12.5977 82.9011 11.7574 82.0607C10.9171 81.2204 10.4444 80.0811 10.443 78.8927V74.5181H91.557V78.8927ZM91.557 71.5298H10.443V30.7729C10.4444 29.5845 10.9171 28.4452 11.7574 27.6048C12.5977 26.7645 13.7371 26.2918 14.9255 26.2905H26.0747V32.1826C26.0757 33.0706 26.3401 33.9384 26.8344 34.6762C27.3287 35.4139 28.0308 35.9884 28.8517 36.3271L32.5034 52.9664C32.6505 53.6215 33.0154 54.2072 33.5385 54.628C34.0616 55.0488 34.712 55.2797 35.3833 55.2829H39.6379C40.0823 55.283 40.521 55.1825 40.9211 54.9891C41.3213 54.7957 41.6725 54.5144 41.9486 54.1661C42.2246 53.8179 42.4184 53.4117 42.5154 52.978C42.6124 52.5443 42.6101 52.0943 42.5087 51.6616L38.9939 36.665H39.3853L60.5436 44.9623C60.7376 45.7091 61.1737 46.3704 61.7836 46.843C62.3935 47.3155 63.1428 47.5726 63.9144 47.574H66.9118C67.8361 47.573 68.7223 47.2053 69.3759 46.5517C70.0294 45.8981 70.3971 45.012 70.3981 44.0877V36.9398C71.963 36.5969 73.3638 35.73 74.3689 34.4826C75.374 33.2352 75.9231 31.682 75.9253 30.08V26.2905H87.0745C88.2629 26.2918 89.4023 26.7645 90.2426 27.6048C91.0829 28.4452 91.5556 29.5845 91.557 30.7729L91.557 71.5298ZM80.3589 61.3906H53.7668C53.4443 60.2917 52.7744 59.3268 51.8576 58.6404C50.9408 57.9541 49.8263 57.5831 48.681 57.5831C47.5358 57.5831 46.4213 57.9541 45.5045 58.6404C44.5876 59.3268 43.9178 60.2917 43.5952 61.3906H21.6411C21.2448 61.3906 20.8648 61.548 20.5846 61.8283C20.3044 62.1085 20.147 62.4885 20.147 62.8848C20.147 63.281 20.3044 63.6611 20.5846 63.9413C20.8648 64.2215 21.2448 64.3789 21.6411 64.3789H43.5952C43.9178 65.4778 44.5876 66.4427 45.5045 67.1291C46.4213 67.8155 47.5358 68.1864 48.681 68.1864C49.8263 68.1864 50.9408 67.8155 51.8576 67.1291C52.7744 66.4427 53.4443 65.4778 53.7668 64.3789H80.3589C80.7552 64.3789 81.1352 64.2215 81.4154 63.9413C81.6956 63.6611 81.853 63.281 81.853 62.8848C81.853 62.4885 81.6956 62.1085 81.4154 61.8283C81.1352 61.548 80.7552 61.3906 80.3589 61.3906H80.3589ZM50.9942 62.8886C50.9934 63.5016 50.7493 64.0891 50.3156 64.5223C49.8819 64.9554 49.294 65.1987 48.6811 65.1987C48.0681 65.1987 47.4802 64.9554 47.0465 64.5223C46.6128 64.0891 46.3688 63.5016 46.368 62.8886L46.3682 62.8848L46.368 62.8809C46.3688 62.268 46.6128 61.6804 47.0465 61.2473C47.4802 60.8141 48.0681 60.5709 48.6811 60.5709C49.294 60.5709 49.8819 60.8141 50.3156 61.2473C50.7493 61.6804 50.9934 62.268 50.9942 62.8809L50.994 62.8848L50.9942 62.8886Z" fill="#1778F2"/>
</g>
<defs>
<clipPath id="clip0_7_16137">
<rect width="102" height="102" fill="white"/>
</clipPath>
</defs>
</svg>
