<svg width="102" height="102" viewBox="0 0 102 102" fill="none" xmlns="http://www.w3.org/2000/svg">
<path d="M54.8735 41.4779C54.9518 41.7134 55.1072 41.9171 55.3159 42.0578C55.5245 42.1984 55.7748 42.268 56.028 42.2559C56.1467 42.2721 56.2671 42.2721 56.3859 42.2559C56.5335 42.2069 56.6694 42.1292 56.7854 42.0276C56.9015 41.9259 56.9952 41.8023 57.061 41.6643C57.1268 41.5262 57.1633 41.3766 57.1683 41.2244C57.1733 41.0722 57.1467 40.9206 57.0901 40.7788L54.3886 32.6263C54.3505 32.4764 54.2812 32.3358 54.1851 32.2132C54.089 32.0905 53.9682 31.9885 53.83 31.9133C53.6919 31.8382 53.5394 31.7915 53.3821 31.7763C53.2248 31.7611 53.0659 31.7776 52.9153 31.8248C52.7648 31.872 52.6258 31.9489 52.5069 32.0507C52.3881 32.1526 52.2919 32.2772 52.2243 32.4168C52.1568 32.5564 52.1194 32.7081 52.1143 32.8625C52.1093 33.0168 52.1368 33.1706 52.1951 33.3141L54.8735 41.4779ZM60.7498 39.6173C60.8253 39.8434 60.972 40.0404 61.1689 40.1801C61.3659 40.3199 61.6031 40.3952 61.8465 40.3954C61.9679 40.3922 62.0882 40.3733 62.2044 40.339C62.4952 40.2461 62.7363 40.0443 62.8748 39.7779C63.0134 39.5115 63.038 39.2023 62.9433 38.9182L60.2418 30.777C60.1467 30.4931 59.9401 30.2576 59.6674 30.1223C59.3946 29.9869 59.0781 29.9629 58.7872 30.0554C58.4991 30.1484 58.2601 30.3484 58.1218 30.6121C57.9835 30.8759 57.9571 31.1822 58.0483 31.4649L60.7498 39.6173ZM11.9269 58.606C11.9269 57.9369 11.7237 57.2829 11.3432 56.7266C10.9626 56.1703 10.4217 55.7367 9.78884 55.4807C9.15598 55.2246 8.4596 55.1577 7.78776 55.2882C7.11591 55.4187 6.49879 55.7409 6.01442 56.214C5.53005 56.6871 5.20019 57.2898 5.06655 57.946C4.93291 58.6022 5.0015 59.2824 5.26364 59.9005C5.52578 60.5186 5.9697 61.0469 6.53926 61.4186C7.10882 61.7903 7.77844 61.9887 8.46344 61.9887C9.382 61.9887 10.2629 61.6323 10.9125 60.9979C11.562 60.3635 11.9269 59.5031 11.9269 58.606ZM7.30896 58.606C7.30896 58.3829 7.37667 58.1649 7.50352 57.9795C7.63038 57.7941 7.81068 57.6495 8.02164 57.5642C8.23259 57.4789 8.46472 57.4565 8.68867 57.5C8.91261 57.5435 9.11832 57.6509 9.27978 57.8086C9.44123 57.9663 9.55119 58.1672 9.59573 58.386C9.64028 58.6047 9.61742 58.8314 9.53004 59.0375C9.44266 59.2435 9.29468 59.4196 9.10483 59.5435C8.91498 59.6674 8.69177 59.7335 8.46344 59.7335C8.3099 59.7365 8.15729 59.7096 8.01454 59.6543C7.8718 59.599 7.74179 59.5164 7.63213 59.4114C7.52247 59.3064 7.43536 59.181 7.3759 59.0427C7.31645 58.9044 7.28584 58.756 7.28587 58.606H7.30896ZM17.4799 62C18.1649 62 18.8345 61.8016 19.4041 61.4299C19.9737 61.0582 20.4176 60.5299 20.6797 59.9118C20.9419 59.2936 21.0104 58.6135 20.8768 57.9573C20.7432 57.3011 20.4133 56.6983 19.9289 56.2253C19.4446 55.7522 18.8274 55.43 18.1556 55.2995C17.4838 55.1689 16.7874 55.2359 16.1545 55.492C15.5217 55.748 14.9807 56.1816 14.6002 56.7379C14.2196 57.2942 14.0165 57.9482 14.0165 58.6172C14.0165 59.5144 14.3814 60.3748 15.0309 61.0092C15.6804 61.6436 16.5614 62 17.4799 62ZM17.4799 57.4896C17.7083 57.4896 17.9315 57.5558 18.1213 57.6797C18.3112 57.8036 18.4591 57.9797 18.5465 58.1857C18.6339 58.3918 18.6568 58.6185 18.6122 58.8372C18.5677 59.0559 18.4577 59.2569 18.2963 59.4146C18.1348 59.5723 17.9291 59.6796 17.7051 59.7232C17.4812 59.7667 17.2491 59.7443 17.0381 59.659C16.8272 59.5736 16.6469 59.4291 16.52 59.2437C16.3931 59.0583 16.3254 58.8402 16.3254 58.6172C16.3224 58.4673 16.35 58.3182 16.4066 58.1788C16.4632 58.0394 16.5478 57.9124 16.6553 57.8053C16.7628 57.6982 16.8911 57.6131 17.0327 57.555C17.1743 57.497 17.3263 57.4671 17.4799 57.4671V57.4896ZM26.4964 62C27.1814 62 27.851 61.8016 28.4206 61.4299C28.9901 61.0582 29.4341 60.5299 29.6962 59.9118C29.9583 59.2936 30.0269 58.6135 29.8933 57.9573C29.7596 57.3011 29.4298 56.6983 28.9454 56.2253C28.461 55.7522 27.8439 55.43 27.1721 55.2995C26.5002 55.1689 25.8039 55.2359 25.171 55.492C24.5381 55.748 23.9972 56.1816 23.6167 56.7379C23.2361 57.2942 23.033 57.9482 23.033 58.6172C23.033 59.5144 23.3979 60.3748 24.0474 61.0092C24.6969 61.6436 25.5778 62 26.4964 62ZM26.4964 57.4896C26.7247 57.4896 26.9479 57.5558 27.1378 57.6797C27.3276 57.8036 27.4756 57.9797 27.563 58.1857C27.6504 58.3918 27.6732 58.6185 27.6287 58.8372C27.5841 59.0559 27.4742 59.2569 27.3127 59.4146C27.1513 59.5723 26.9456 59.6796 26.7216 59.7232C26.4977 59.7667 26.2656 59.7443 26.0546 59.659C25.8436 59.5736 25.6633 59.4291 25.5365 59.2437C25.4096 59.0583 25.3419 58.8402 25.3419 58.6172C25.3388 58.4673 25.3664 58.3182 25.4231 58.1788C25.4797 58.0394 25.5643 57.9124 25.6718 57.8053C25.7793 57.6982 25.9076 57.6131 26.0492 57.555C26.1908 57.497 26.3428 57.4671 26.4964 57.4671V57.4896Z" fill="#1778F2"/>
<path d="M98.0164 30.0218C99.5576 29.2478 100.772 27.9439 101.439 26.3467C102.105 24.7494 102.181 22.9647 101.651 21.3164C101.121 19.6681 100.021 18.2654 98.5506 17.3629C97.0802 16.4604 95.3368 16.1178 93.6367 16.3974L90.2238 5.77016C90.1694 5.60038 90.0762 5.44576 89.9518 5.31864C89.8274 5.19152 89.6751 5.09542 89.5071 5.03803C89.3401 4.9936 89.1652 4.98802 88.9956 5.02172C88.8261 5.05541 88.6665 5.1275 88.5288 5.2325L62.4889 23.2268L52.3869 26.5099C51.9969 26.6427 51.6167 26.8033 51.2493 26.9904H6.96217C6.66046 26.9904 6.3711 27.1109 6.15776 27.3254C5.94442 27.54 5.82456 27.8309 5.82456 28.1343V47.9361H1.13761C0.835897 47.9361 0.546542 48.0566 0.333198 48.2711C0.119855 48.4857 0 48.7766 0 49.08V68.7902C0 69.0936 0.119855 69.3846 0.333198 69.5991C0.546542 69.8137 0.835897 69.9342 1.13761 69.9342H5.82456V84.5538H4.52769C3.78526 84.5269 3.047 84.6766 2.37293 84.9907C1.69887 85.3047 1.10802 85.7743 0.648438 86.3613C0.34954 86.7639 0.152028 87.2332 0.0727849 87.7293C-0.00645843 88.2253 0.0349236 88.7333 0.193394 89.2097L1.14899 92.1039C2.07045 94.9867 5.48328 97 9.23739 97H85.5255C89.3365 97 92.6583 94.9867 93.6139 92.1039L94.5695 89.2097C94.7309 88.7337 94.7738 88.2251 94.6945 87.7286C94.6152 87.232 94.416 86.7625 94.1145 86.3613C93.6549 85.7743 93.064 85.3047 92.39 84.9907C91.7159 84.6766 90.9776 84.5269 90.2352 84.5538H88.9383V42.4222L100.383 42.182C100.561 42.1794 100.737 42.1345 100.895 42.051C101.053 41.9676 101.189 41.8479 101.293 41.7016C101.395 41.5553 101.461 41.387 101.487 41.2102C101.513 41.0334 101.497 40.853 101.441 40.6834L98.0164 30.0218ZM99.4498 22.0142C99.7947 23.079 99.7723 24.2296 99.3862 25.28C99.0002 26.3304 98.2731 27.2192 97.3225 27.8026L94.342 18.651C95.4483 18.5538 96.5548 18.8353 97.482 19.45C98.4092 20.0646 99.1027 20.9763 99.4498 22.0371V22.0142ZM48.7124 33.9799C48.8387 32.9702 49.2015 32.005 49.7711 31.1637C50.3407 30.3225 51.1008 29.6292 51.9888 29.141C52.3221 28.9579 52.6727 28.8085 53.0354 28.6949L62.2273 25.6977L67.0166 40.569L67.1531 40.9809L57.9498 43.9666C56.3582 44.4867 54.6265 44.3514 53.134 43.5902C51.6414 42.8291 50.5096 41.5041 49.9866 39.9056L48.9627 36.6796C48.788 36.0896 48.7036 35.4763 48.7124 34.8608C48.6952 34.5674 48.6952 34.2733 48.7124 33.9799ZM68.0518 43.1315L73.3986 53.5643L69.8037 54.7082L64.4683 44.2754L68.0518 43.1315ZM49.1106 42.9828L49.2471 43.1544C49.4667 43.4383 49.7022 43.7095 49.9524 43.9666L50.0776 44.1038C50.3553 44.3728 50.6518 44.6213 50.9649 44.8474L51.1811 44.9961C51.4947 45.2239 51.8257 45.4266 52.1708 45.6024H52.2618C52.59 45.7649 52.9282 45.9063 53.2743 46.0257L53.5245 46.1058C53.8976 46.2215 54.2775 46.3132 54.6621 46.3803H54.901C55.2537 46.3803 55.6064 46.4489 55.9704 46.4604H56.1297C56.5101 46.456 56.8899 46.4293 57.2673 46.3803H57.5403C57.9253 46.3101 58.3053 46.2146 58.6779 46.0943L62.2386 44.9504L68.1997 56.5843C68.2958 56.7708 68.4411 56.9271 68.6197 57.0361C68.7983 57.1451 69.0033 57.2025 69.2122 57.202C69.3253 57.2193 69.4403 57.2193 69.5535 57.202L75.3439 55.3145C75.5015 55.264 75.6463 55.1794 75.7682 55.0668C75.89 54.9542 75.9859 54.8162 76.0492 54.6625C76.1185 54.5119 76.1544 54.348 76.1544 54.182C76.1544 54.0161 76.1185 53.8522 76.0492 53.7016L70.4977 42.8341L79.9512 42.6396V84.5538H14.8344V69.9342H19.5214L26.8476 76.9809C26.9476 77.0676 27.0585 77.1407 27.1775 77.1983H27.2913C27.3819 77.2093 27.4736 77.2093 27.5643 77.1983H27.6325C27.7769 77.1909 27.919 77.16 28.0535 77.1067C28.2698 77.01 28.4507 76.8478 28.5711 76.6428C28.6914 76.4377 28.7451 76.2 28.7246 75.9628L28.5313 69.7855H33.1727C33.4744 69.7855 33.7638 69.665 33.9771 69.4504C34.1905 69.2359 34.3103 68.9449 34.3103 68.6415V49.08C34.3103 48.7766 34.1905 48.4857 33.9771 48.2711C33.7638 48.0566 33.4744 47.9361 33.1727 47.9361H14.8344V36.0276H46.5282C46.5956 36.4699 46.6983 36.906 46.8354 37.3317L47.8592 40.5576C47.9972 40.9493 48.1606 41.3314 48.3484 41.7016L48.4622 41.9418C48.6568 42.3019 48.8733 42.6496 49.1106 42.9828ZM69.8265 86.8532V89.633H24.9478V86.8532H69.8265ZM8.09978 29.2554H48.3712C48.346 29.2771 48.3265 29.3046 48.3143 29.3355C48.2698 29.3866 48.2281 29.4401 48.1891 29.4956C48.0071 29.7359 47.8479 29.9761 47.6886 30.2278L47.5748 30.3994C47.4051 30.695 47.2531 31.0006 47.1198 31.3145C47.0982 31.385 47.0716 31.4538 47.0402 31.5204C46.9263 31.8125 46.8275 32.1103 46.7444 32.4127V32.5385C46.6587 32.8741 46.5903 33.2139 46.5396 33.5566C46.5451 33.6099 46.5451 33.6636 46.5396 33.7168H13.6968C13.3951 33.7168 13.1058 33.8373 12.8924 34.0519C12.6791 34.2664 12.5592 34.5574 12.5592 34.8608V47.9361H8.09978V29.2554ZM2.27522 67.6463V50.224H32.0806V67.6463H27.405C27.1033 67.6463 26.8139 67.7668 26.6006 67.9813C26.3873 68.1959 26.2674 68.4868 26.2674 68.7902L26.4153 73.366L20.7272 67.9323C20.5146 67.7321 20.2336 67.6215 19.9423 67.6234H2.27522V67.6463ZM12.5137 69.9342V84.5538H8.09978V69.9342H12.5137ZM90.2352 86.8417C90.6168 86.8229 90.9977 86.8901 91.3501 87.0386C91.7024 87.187 92.0173 87.4129 92.2715 87.6997C92.3575 87.8096 92.4158 87.9388 92.4416 88.0762C92.4673 88.2136 92.4597 88.3552 92.4194 88.489L91.4524 91.3718C90.8154 93.3165 88.324 94.7121 85.5255 94.7121H9.23739C6.43887 94.7121 3.94751 93.3165 3.31044 91.3718L2.35485 88.489C2.30999 88.3565 2.29897 88.2148 2.32283 88.0768C2.34668 87.9389 2.40464 87.8092 2.49137 87.6997C2.7456 87.4129 3.06044 87.187 3.4128 87.0386C3.76517 86.8901 4.14611 86.8229 4.52769 86.8417H22.7294V90.7655C22.7294 91.0689 22.8493 91.3598 23.0626 91.5744C23.276 91.7889 23.5653 91.9094 23.8671 91.9094H70.9641C71.2658 91.9094 71.5552 91.7889 71.7685 91.5744C71.9818 91.3598 72.1017 91.0689 72.1017 90.7655V86.8532H90.2352V86.8417ZM82.2037 84.5538V42.571L86.6631 42.4794V84.5538H82.2037ZM70.8276 40.5233H69.4169L68.2793 36.8398L64.3432 24.6796L88.5288 7.93222L91.8051 18.1019L92.4763 20.1953L98.7673 39.9284L70.8276 40.5233Z" fill="#1778F2"/>
<path d="M36.9581 59.7652C36.7523 59.7956 36.5588 59.8837 36.3995 60.0197C36.2402 60.1556 36.1213 60.334 36.0562 60.5349C35.9911 60.7357 35.9824 60.951 36.031 61.1566C36.0796 61.3621 36.1837 61.5499 36.3315 61.6987L43.8516 69.1485L42.0835 79.6693C42.0612 79.8735 42.0938 80.08 42.1778 80.2669C42.2618 80.4538 42.394 80.6141 42.5604 80.7308C42.7268 80.8474 42.9212 80.9161 43.123 80.9294C43.3247 80.9428 43.5262 80.9004 43.7061 80.8066L52.9944 75.8477L62.2939 80.8635C62.4555 80.9522 62.6361 80.9991 62.8198 81C63.0562 80.9964 63.2861 80.9212 63.4801 80.7839C63.6517 80.6561 63.7839 80.4812 63.8612 80.2798C63.9385 80.0783 63.9577 79.8587 63.9165 79.6465L62.1484 69.1258L69.6685 61.676C69.8163 61.5271 69.9204 61.3394 69.969 61.1338C70.0176 60.9282 70.0089 60.7129 69.9438 60.5121C69.8787 60.3113 69.7598 60.1329 69.6005 59.9969C69.4412 59.861 69.2477 59.7728 69.0419 59.7424L58.6569 58.207L54.0128 48.6416C53.9211 48.4493 53.778 48.2871 53.5999 48.1737C53.4218 48.0602 53.2158 48 53.0056 48C52.7954 48 52.5894 48.0602 52.4113 48.1737C52.2331 48.2871 52.0901 48.4493 51.9984 48.6416L47.3543 58.207L36.9581 59.7652ZM49.0889 59.7652L52.9944 51.7239L56.9 59.7652C56.9809 59.9286 57.0995 60.0698 57.2456 60.1767C57.3917 60.2836 57.5611 60.3531 57.7393 60.3793L66.468 61.676L60.1453 67.9315C60.0177 68.0605 59.9226 68.2188 59.8681 68.393C59.8136 68.5673 59.8011 68.7523 59.8319 68.9324L61.3203 77.7698L53.4868 73.5957C53.3275 73.5127 53.151 73.4698 52.972 73.4706C52.7898 73.4729 52.6104 73.5156 52.4461 73.5957L44.6126 77.7698L46.1009 68.9324C46.1303 68.7514 46.1161 68.5658 46.0596 68.3915C46.0031 68.2172 45.9059 68.0594 45.7764 67.9315L39.4649 61.676L48.1936 60.3793C48.3806 60.3632 48.5606 60.2996 48.717 60.1942C48.8735 60.0889 49.0013 59.9452 49.0889 59.7765V59.7652Z" fill="#1778F2"/>
</svg>
